<svg class="dn" height="0" version="1.1" width="0"
    xmlns="http://www.w3.org/2000/svg">
    <defs>
        <g id="nav-caret--up">
            <path fill-rule="evenodd" clip-rule="evenodd" d="M1.0019 7.10949C0.757285 6.8343 0.782072 6.41292 1.05726 6.16831L7.05726 0.834972C7.30985 0.610447 7.69049 0.610447 7.94308 0.834972L13.9431 6.16831C14.2183 6.41292 14.2431 6.8343 13.9984 7.10949C13.7538 7.38468 13.3324 7.40946 13.0573 7.16485L7.50017 2.22522L1.94308 7.16485C1.66789 7.40946 1.24651 7.38468 1.0019 7.10949Z" fill="currentColor"/>
        </g>
        <g id="nav-caret--down">
            <path fill-rule="evenodd" clip-rule="evenodd" d="M13.4983 0.890513C13.743 1.1657 13.7182 1.58708 13.443 1.83169L7.44298 7.16503C7.19039 7.38955 6.80976 7.38955 6.55717 7.16503L0.557164 1.83169C0.281976 1.58708 0.257188 1.1657 0.501801 0.890513C0.746412 0.615324 1.16779 0.590537 1.44298 0.835149L7.00007 5.77478L12.5572 0.835149C12.8324 0.590537 13.2537 0.615324 13.4983 0.890513Z" fill="currentColor"/>
        </g>
    </defs>
</svg>
