<svg width="25" height="24" viewBox="0 0 25 24" fill="none" xmlns="http://www.w3.org/2000/svg">
<g clip-path="url(#clip0_189_1369)">
<path d="M20.664 13H5.919L4.978 5H14.5V3H4.742L4.7 2.648C4.61382 1.9186 4.26306 1.24615 3.71419 0.758104C3.16532 0.270054 2.45647 0.000312836 1.722 0L0.5 0V2H1.722C1.96693 2.00003 2.20334 2.08996 2.38637 2.25272C2.56941 2.41547 2.68634 2.63975 2.715 2.883L4.3 16.351C4.38595 17.0806 4.73662 17.7533 5.28551 18.2415C5.8344 18.7298 6.54337 18.9997 7.278 19H20.5V17H7.278C7.03291 16.9999 6.79638 16.9099 6.61333 16.7469C6.43027 16.5839 6.31343 16.3594 6.285 16.116L6.154 15H22.336L23.236 10H21.205L20.664 13Z" fill="white"/>
<path d="M7.50015 24.0006C8.60472 24.0006 9.50014 23.1052 9.50014 22.0006C9.50014 20.8961 8.60472 20.0006 7.50015 20.0006C6.39558 20.0006 5.50015 20.8961 5.50015 22.0006C5.50015 23.1052 6.39558 24.0006 7.50015 24.0006Z" fill="white"/>
<path d="M17.5 24.0006C18.6046 24.0006 19.5 23.1052 19.5 22.0006C19.5 20.8961 18.6046 20.0006 17.5 20.0006C16.3954 20.0006 15.5 20.8961 15.5 22.0006C15.5 23.1052 16.3954 24.0006 17.5 24.0006Z" fill="white"/>
<path d="M21.4998 2.99999V-7.62939e-06H19.4998V2.99999H16.4998V4.99999H19.4998V7.99999H21.4998V4.99999H24.4998V2.99999H21.4998Z" fill="white"/>
</g>
<defs>
<clipPath id="clip0_189_1369">
<rect width="24" height="24" fill="white" transform="translate(0.5)"/>
</clipPath>
</defs>
</svg>
