<svg width="41" height="40" viewBox="0 0 41 40" fill="none" xmlns="http://www.w3.org/2000/svg">
<g clip-path="url(#clip0_116_3914)">
<path d="M7.16667 11.6667H2.16667C1.72464 11.6667 1.30072 11.8423 0.988155 12.1548C0.675595 12.4674 0.5 12.8913 0.5 13.3333C0.5 13.7754 0.675595 14.1993 0.988155 14.5118C1.30072 14.8244 1.72464 15 2.16667 15H7.16667C7.60869 15 8.03262 14.8244 8.34518 14.5118C8.65774 14.1993 8.83333 13.7754 8.83333 13.3333C8.83333 12.8913 8.65774 12.4674 8.34518 12.1548C8.03262 11.8423 7.60869 11.6667 7.16667 11.6667Z" fill="#000711"/>
<path d="M5.5 18.3333H2.16667C1.72464 18.3333 1.30072 18.5089 0.988155 18.8215C0.675595 19.1341 0.5 19.558 0.5 20C0.5 20.442 0.675595 20.866 0.988155 21.1785C1.30072 21.4911 1.72464 21.6667 2.16667 21.6667H5.5C5.94203 21.6667 6.36595 21.4911 6.67851 21.1785C6.99107 20.866 7.16667 20.442 7.16667 20C7.16667 19.558 6.99107 19.1341 6.67851 18.8215C6.36595 18.5089 5.94203 18.3333 5.5 18.3333Z" fill="#000711"/>
<path d="M4.25 25H2.16667C1.72464 25 1.30072 25.1756 0.988155 25.4882C0.675595 25.8007 0.5 26.2246 0.5 26.6667C0.5 27.1087 0.675595 27.5326 0.988155 27.8452C1.30072 28.1577 1.72464 28.3333 2.16667 28.3333H4.25C4.69203 28.3333 5.11595 28.1577 5.42851 27.8452C5.74107 27.5326 5.91667 27.1087 5.91667 26.6667C5.91667 26.2246 5.74107 25.8007 5.42851 25.4882C5.11595 25.1756 4.69203 25 4.25 25Z" fill="#000711"/>
<path d="M40.3833 12.2833C40.3453 12.2614 40.3022 12.2498 40.2583 12.2498C40.2144 12.2498 40.1713 12.2614 40.1333 12.2833L26.2667 24.4667C25.5553 25.1044 24.6385 25.4652 23.6833 25.4833C23.2536 25.4935 22.8271 25.4075 22.4349 25.2316C22.0427 25.0557 21.6948 24.7944 21.4167 24.4667L11.2 12.3333C11.1626 12.3096 11.1193 12.297 11.075 12.297C11.0307 12.297 10.9874 12.3096 10.95 12.3333C10.9091 12.3564 10.8733 12.3875 10.8446 12.4247C10.816 12.462 10.7952 12.5046 10.7833 12.55L8.4 27.55C8.34555 27.854 8.35938 28.1663 8.44048 28.4643C8.52158 28.7623 8.66793 29.0386 8.86892 29.2731C9.06991 29.5076 9.32053 29.6944 9.60262 29.8202C9.88472 29.9459 10.1912 30.0073 10.5 30H35.5C36.1931 29.9788 36.8575 29.7182 37.3802 29.2624C37.9028 28.8066 38.2514 28.1838 38.3667 27.5L40.5 12.5C40.5075 12.4561 40.5001 12.4109 40.4789 12.3716C40.4578 12.3324 40.4241 12.3013 40.3833 12.2833Z" fill="#000711"/>
<path d="M22.9333 23.2C23.2265 23.4891 23.6216 23.6511 24.0333 23.6511C24.445 23.6511 24.8402 23.4891 25.1333 23.2L38.9333 11.0833C39.0237 11.007 39.0928 10.9085 39.1337 10.7975C39.1746 10.6865 39.1859 10.5667 39.1667 10.45C39.0833 10 38.55 10 38.3833 10H13.65C13.47 9.97785 13.2875 10.0086 13.1247 10.0885C12.9619 10.1684 12.8259 10.2941 12.7333 10.45C12.6681 10.5427 12.633 10.6533 12.633 10.7667C12.633 10.88 12.6681 10.9906 12.7333 11.0833L22.9333 23.2Z" fill="#000711"/>
</g>
<defs>
<clipPath id="clip0_116_3914">
<rect width="40" height="40" fill="white" transform="translate(0.5)"/>
</clipPath>
</defs>
</svg>
