<svg width="41" height="40" viewBox="0 0 41 40" fill="none" xmlns="http://www.w3.org/2000/svg">
<g clip-path="url(#clip0_116_3929)">
<path d="M38.8333 10C38.8489 9.57066 38.7784 9.14254 38.6258 8.74092C38.4732 8.33929 38.2418 7.9723 37.9451 7.6616C37.6483 7.3509 37.2924 7.10278 36.8982 6.9319C36.504 6.76102 36.0796 6.67084 35.65 6.66667H32.5833C32.4728 6.66667 32.3668 6.62277 32.2887 6.54463C32.2106 6.46649 32.1667 6.36051 32.1667 6.25V5C32.1667 3.67392 31.6399 2.40215 30.7022 1.46447C29.7645 0.526784 28.4928 0 27.1667 0L22.1667 0C20.8406 0 19.5688 0.526784 18.6311 1.46447C17.6935 2.40215 17.1667 3.67392 17.1667 5V6.25C17.1667 6.36051 17.1228 6.46649 17.0446 6.54463C16.9665 6.62277 16.8605 6.66667 16.75 6.66667H13.4167C13.3062 6.66667 13.2002 6.62277 13.122 6.54463C13.0439 6.46649 13 6.36051 13 6.25V5C13 4.55797 13.1756 4.13405 13.4882 3.82149C13.8007 3.50893 14.2246 3.33333 14.6667 3.33333C15.1087 3.33333 15.5326 3.15774 15.8452 2.84518C16.1577 2.53262 16.3333 2.10869 16.3333 1.66667C16.3333 1.22464 16.1577 0.800716 15.8452 0.488155C15.5326 0.175595 15.1087 0 14.6667 0C13.3406 0 12.0688 0.526784 11.1311 1.46447C10.1935 2.40215 9.66667 3.67392 9.66667 5V6.25C9.66667 6.36051 9.62277 6.46649 9.54463 6.54463C9.46649 6.62277 9.36051 6.66667 9.25 6.66667H6.33333C5.46832 6.63429 4.62463 6.93968 3.98076 7.51823C3.33688 8.09679 2.94332 8.90313 2.88333 9.76667L0.5 36.75C0.510745 37.1907 0.608789 37.6248 0.788454 38.0274C0.96812 38.4299 1.22584 38.7928 1.5467 39.095C1.86755 39.3973 2.24518 39.6329 2.6577 39.7882C3.07023 39.9436 3.50947 40.0156 3.95 40H37.2833C37.7151 39.998 38.1421 39.9095 38.5391 39.7398C38.9361 39.5701 39.2951 39.3226 39.5949 39.0119C39.8947 38.7012 40.1292 38.3337 40.2847 37.9309C40.4402 37.5281 40.5134 37.0982 40.5 36.6667L38.8333 10ZM20.5 5C20.5 4.55797 20.6756 4.13405 20.9882 3.82149C21.3007 3.50893 21.7246 3.33333 22.1667 3.33333H27.1667C27.6087 3.33333 28.0326 3.50893 28.3452 3.82149C28.6577 4.13405 28.8333 4.55797 28.8333 5V6.25C28.8333 6.36051 28.7894 6.46649 28.7113 6.54463C28.6332 6.62277 28.5272 6.66667 28.4167 6.66667H20.9167C20.8062 6.66667 20.7002 6.62277 20.622 6.54463C20.5439 6.46649 20.5 6.36051 20.5 6.25V5ZM4.76667 36.6667C4.65139 36.667 4.53729 36.6435 4.43158 36.5975C4.32587 36.5515 4.23085 36.4841 4.15253 36.3995C4.07421 36.3149 4.01429 36.215 3.97656 36.1061C3.93883 35.9971 3.92411 35.8816 3.93333 35.7667L6.26667 10.7667C6.27508 10.6571 6.30508 10.5503 6.35493 10.4524C6.40479 10.3544 6.47352 10.2673 6.55717 10.1961C6.64081 10.1248 6.73773 10.0708 6.84233 10.0372C6.94694 10.0035 7.05716 9.99089 7.16667 10H11.4667C11.6793 9.99962 11.884 10.0805 12.0389 10.2261C12.1938 10.3718 12.2872 10.5711 12.3 10.7833L13.6833 35.7833C13.6929 35.8967 13.6782 36.0109 13.6402 36.1181C13.6022 36.2254 13.5417 36.3233 13.4629 36.4053C13.384 36.4873 13.2885 36.5516 13.1828 36.5938C13.0771 36.636 12.9637 36.6551 12.85 36.65L4.76667 36.6667Z" fill="#000711"/>
</g>
<defs>
<clipPath id="clip0_116_3929">
<rect width="40" height="40" fill="white" transform="translate(0.5)"/>
</clipPath>
</defs>
</svg>
