<svg width="41" height="40" viewBox="0 0 41 40" fill="none" xmlns="http://www.w3.org/2000/svg">
<g clip-path="url(#clip0_116_3921)">
<path d="M27.3 14.15C27.2861 13.7548 27.16 13.3717 26.9364 13.0455C26.7129 12.7193 26.4011 12.4635 26.0375 12.3079C25.6739 12.1524 25.2736 12.1035 24.8833 12.167C24.493 12.2305 24.1288 12.4038 23.8333 12.6667C23.1192 13.8704 22.6227 15.1906 22.3667 16.5667C22.3488 16.6364 22.3486 16.7095 22.366 16.7793C22.3835 16.8492 22.4181 16.9135 22.4667 16.9667C22.5172 17.0195 22.5808 17.0581 22.651 17.0786C22.7213 17.0991 22.7956 17.1007 22.8667 17.0833C26.45 16.1667 27.3 15.5333 27.3 14.15Z" fill="#000711"/>
<path d="M18.2167 17.0833C18.2852 17.0977 18.3563 17.0945 18.4233 17.0741C18.4903 17.0537 18.5511 17.0168 18.6 16.9667C18.6543 16.9172 18.6939 16.8536 18.7145 16.7831C18.7351 16.7125 18.7358 16.6376 18.7167 16.5667C18.4558 15.1945 17.9656 13.876 17.2667 12.6667C16.8716 12.2828 16.3425 12.0681 15.7917 12.0681C15.2408 12.0681 14.7117 12.2828 14.3167 12.6667C14.1227 12.8602 13.9687 13.0901 13.8637 13.3432C13.7587 13.5963 13.7046 13.8676 13.7046 14.1417C13.7046 14.4157 13.7587 14.687 13.8637 14.9401C13.9687 15.1933 14.1227 15.4232 14.3167 15.6167C15.5191 16.3337 16.8398 16.8303 18.2167 17.0833Z" fill="#000711"/>
<path d="M21.75 10.1667C21.7474 10.247 21.7681 10.3263 21.8096 10.3951C21.8511 10.4639 21.9116 10.5193 21.9838 10.5545C22.056 10.5897 22.1368 10.6033 22.2166 10.5937C22.2964 10.584 22.3716 10.5515 22.4333 10.5C23.3189 9.83769 24.4122 9.51396 25.5156 9.58732C26.6191 9.66068 27.6599 10.1263 28.45 10.9C28.8889 11.3353 29.2349 11.8552 29.4669 12.4282C29.699 13.0012 29.8123 13.6153 29.8 14.2333C29.7884 15.216 29.448 16.1665 28.8333 16.9333C28.7936 16.9986 28.7726 17.0736 28.7726 17.15C28.7726 17.2264 28.7936 17.3014 28.8333 17.3667C28.8659 17.4412 28.9195 17.5046 28.9876 17.549C29.0557 17.5934 29.1353 17.617 29.2167 17.6167H38.9667C39.0519 17.6143 39.1343 17.5859 39.2029 17.5352C39.2714 17.4846 39.3228 17.4141 39.35 17.3333C39.874 15.9437 40.134 14.4684 40.1167 12.9833C39.9435 11.0222 39.2128 9.15146 38.0109 7.59214C36.8089 6.03282 35.1858 4.85 33.3333 4.18333C32.5167 3.85 27.6 1.51667 21.75 6.86667V10.1667Z" fill="#000711"/>
<path d="M24.9333 20.1167C24.8496 20.1154 24.7675 20.1404 24.6987 20.1883C24.6299 20.2361 24.5779 20.3044 24.55 20.3834C24.5175 20.4608 24.5113 20.5468 24.5323 20.6281C24.5534 20.7094 24.6006 20.7815 24.6667 20.8334L28 23.75C28.2497 23.971 28.4015 24.2822 28.4218 24.6151C28.4421 24.948 28.3293 25.2753 28.1083 25.525C27.8873 25.7748 27.5761 25.9265 27.2433 25.9468C26.9104 25.9671 26.5831 25.8544 26.3333 25.6334L22.4167 22.2167C22.3514 22.1769 22.2764 22.1559 22.2 22.1559C22.1236 22.1559 22.0486 22.1769 21.9833 22.2167C21.9088 22.2492 21.8454 22.3028 21.801 22.371C21.7566 22.4391 21.7331 22.5187 21.7333 22.6V36.2667C21.7327 36.3438 21.7545 36.4194 21.7959 36.4845C21.8373 36.5495 21.8966 36.6012 21.9667 36.6334C22.0305 36.6771 22.106 36.7005 22.1833 36.7005C22.2607 36.7005 22.3362 36.6771 22.4 36.6334C27.4 32.9834 34.2333 27 37.75 20.8334C37.7823 20.7686 37.7991 20.6973 37.7991 20.625C37.7991 20.5527 37.7823 20.4814 37.75 20.4167C37.7119 20.354 37.6579 20.3025 37.5935 20.2674C37.5292 20.2323 37.4566 20.2148 37.3833 20.2167L24.9333 20.1167Z" fill="#000711"/>
<path d="M11.8167 17.6167C11.8922 17.6108 11.9647 17.5844 12.0264 17.5403C12.0881 17.4963 12.1366 17.4362 12.1667 17.3667C12.2064 17.3014 12.2274 17.2264 12.2274 17.15C12.2274 17.0736 12.2064 16.9986 12.1667 16.9333C11.5401 16.142 11.2047 15.1593 11.2167 14.15C11.2155 13.5459 11.3343 12.9476 11.566 12.3897C11.7978 11.8319 12.1379 11.3255 12.5667 10.9C13.3585 10.1294 14.3989 9.66586 15.5014 9.59257C16.6039 9.51927 17.6965 9.84096 18.5833 10.5C18.645 10.5515 18.7203 10.584 18.8001 10.5937C18.8798 10.6033 18.9607 10.5897 19.0329 10.5545C19.1051 10.5193 19.1656 10.4639 19.2071 10.3951C19.2485 10.3263 19.2692 10.247 19.2667 10.1667V6.83334C13.4 1.53334 8.56667 3.81667 7.66667 4.18334C5.83597 4.868 4.23743 6.05861 3.05717 7.61655C1.87691 9.17449 1.1635 11.0357 1 12.9833C0.955968 14.4632 1.18769 15.9383 1.68333 17.3333C1.71058 17.4141 1.76194 17.4846 1.83048 17.5352C1.89903 17.5859 1.98146 17.6143 2.06667 17.6167H11.8167Z" fill="#000711"/>
<path d="M19.25 22.5334C19.2503 22.452 19.2268 22.3724 19.1823 22.3043C19.1379 22.2362 19.0745 22.1825 19 22.15C18.9347 22.1103 18.8598 22.0893 18.7833 22.0893C18.7069 22.0893 18.632 22.1103 18.5667 22.15L14.65 25.6334C14.4003 25.8544 14.0729 25.9671 13.7401 25.9468C13.4072 25.9265 13.096 25.7748 12.875 25.525C12.654 25.2753 12.5412 24.948 12.5616 24.6151C12.5819 24.2822 12.7336 23.971 12.9833 23.75L16.3167 20.8334C16.3827 20.7815 16.4299 20.7094 16.451 20.6281C16.4721 20.5468 16.4659 20.4608 16.4333 20.3833C16.4054 20.3044 16.3534 20.2361 16.2846 20.1883C16.2158 20.1404 16.1338 20.1154 16.05 20.1167H3.6C3.52669 20.1148 3.45418 20.1323 3.3898 20.1674C3.32542 20.2025 3.27144 20.254 3.23333 20.3167C3.20105 20.3814 3.18425 20.4527 3.18425 20.525C3.18425 20.5973 3.20105 20.6686 3.23333 20.7334C6.75 26.9 13.5333 32.8834 18.5833 36.5334C18.6486 36.5731 18.7236 36.5941 18.8 36.5941C18.8764 36.5941 18.9514 36.5731 19.0167 36.5334C19.0868 36.5012 19.1461 36.4495 19.1875 36.3845C19.2289 36.3194 19.2506 36.2438 19.25 36.1667V22.5334Z" fill="#000711"/>
</g>
<defs>
<clipPath id="clip0_116_3921">
<rect width="40" height="40" fill="white" transform="translate(0.5)"/>
</clipPath>
</defs>
</svg>
