<svg width="24" height="24" viewBox="0 0 24 24" fill="none" xmlns="http://www.w3.org/2000/svg">
<path d="M20.25 20.25C20.25 21.0456 19.9339 21.8087 19.3713 22.3713C18.8087 22.9339 18.0456 23.25 17.25 23.25H5.25C4.45435 23.25 3.69129 22.9339 3.12868 22.3713C2.56607 21.8087 2.25 21.0456 2.25 20.25V11.25C2.25 10.4544 2.56607 9.69129 3.12868 9.12868C3.69129 8.56607 4.45435 8.25 5.25 8.25H17.25C18.0456 8.25 18.8087 8.56607 19.3713 9.12868C19.9339 9.69129 20.25 10.4544 20.25 11.25" stroke="#142032" stroke-width="1.5" stroke-linecap="round" stroke-linejoin="round"/>
<path d="M6.75 8.25V5.25C6.75 4.05653 7.22411 2.91193 8.06802 2.06802C8.91193 1.22411 10.0565 0.75 11.25 0.75C12.4435 0.75 13.5881 1.22411 14.432 2.06802C15.2759 2.91193 15.75 4.05653 15.75 5.25V8.25" stroke="#142032" stroke-width="1.5" stroke-linecap="round" stroke-linejoin="round"/>
<path d="M15.75 14.25H21.75" stroke="#142032" stroke-width="1.5" stroke-linecap="round" stroke-linejoin="round"/>
<path d="M15.75 17.25H21.75" stroke="#142032" stroke-width="1.5" stroke-linecap="round" stroke-linejoin="round"/>
</svg>
