<svg width="20" height="20" viewBox="0 0 20 20" fill="none" xmlns="http://www.w3.org/2000/svg">
<path d="M9.98752 10C12.7455 10 14.9813 7.76142 14.9813 5C14.9813 2.23858 12.7455 0 9.98752 0C7.22954 0 4.99376 2.23858 4.99376 5C4.99376 7.76142 7.22954 10 9.98752 10Z" fill="#585959"/>
<path d="M18.5268 14.225C18.9618 14.4251 19.3302 14.7462 19.588 15.15C19.8489 15.5525 19.9916 16.0203 20 16.5V20H0V16.5C0.000914845 16.0227 0.134956 15.5551 0.387016 15.15C0.64487 14.7462 1.01322 14.4251 1.44819 14.225C4.14053 13.0511 7.05119 12.4631 9.98752 12.5C12.9238 12.4631 15.8345 13.0511 18.5268 14.225Z" fill="#585959"/>
</svg>
