<svg width="224" height="44" viewBox="0 0 224 44" fill="none" xmlns="http://www.w3.org/2000/svg">
<path d="M150.276 11.417V14.1686H140.253V20.4907H148.868V23.2423H140.253V29.9574H150.276V32.709H137.174V11.417H150.276Z" fill="#142032"/>
<path d="M157.801 27.8282C157.801 28.8546 158.052 29.5316 158.554 29.8591C159.079 30.1649 159.766 30.2413 160.618 30.0884H161.109V32.6435C160.891 32.6872 160.574 32.7199 160.159 32.7418C159.766 32.7854 159.417 32.8073 159.111 32.8073C157.692 32.8073 156.622 32.4142 155.901 31.628C155.18 30.82 154.82 29.6844 154.82 28.2213V9.77917H157.801V27.8282Z" fill="#142032"/>
<path d="M178.283 28.123C177.89 29.7609 177.06 31.0275 175.793 31.9228C174.527 32.7963 172.987 33.2331 171.175 33.2331C170.039 33.2331 168.991 33.0366 168.03 32.6435C167.069 32.2286 166.239 31.6499 165.541 30.9074C164.842 30.1649 164.296 29.2695 163.903 28.2213C163.51 27.1731 163.313 26.0157 163.313 24.7491V24.2905C163.313 23.0239 163.499 21.8774 163.87 20.851C164.263 19.8028 164.798 18.9074 165.475 18.1649C166.152 17.4224 166.971 16.8547 167.932 16.4616C168.893 16.0467 169.941 15.8392 171.076 15.8392C172.299 15.8392 173.369 16.0576 174.287 16.4943C175.226 16.9311 176.012 17.5316 176.645 18.296C177.278 19.0603 177.748 19.9556 178.054 20.982C178.381 21.9866 178.545 23.0676 178.545 24.225C178.545 24.4652 178.545 24.6726 178.545 24.8473C178.545 25.0002 178.534 25.1967 178.512 25.437H166.359C166.491 26.9438 166.96 28.1995 167.768 29.204C168.576 30.1867 169.733 30.6781 171.24 30.6781C172.31 30.6781 173.173 30.4597 173.828 30.0229C174.505 29.5862 175.007 28.9529 175.335 28.123H178.283ZM175.499 22.9802C175.455 22.4124 175.335 21.8555 175.138 21.3096C174.964 20.7637 174.702 20.2723 174.352 19.8355C174.003 19.3988 173.566 19.0494 173.042 18.7873C172.518 18.5034 171.895 18.3615 171.175 18.3615C169.733 18.3615 168.631 18.7873 167.866 19.639C167.124 20.4907 166.643 21.6044 166.425 22.9802H175.499Z" fill="#142032"/>
<path d="M190.691 16.3306V18.7546H186.138V27.9592C186.138 28.942 186.368 29.608 186.826 29.9574C187.285 30.285 187.82 30.4488 188.431 30.4488C189.327 30.4488 190.113 30.1976 190.79 29.6954H191.314V32.2176C190.921 32.436 190.418 32.6216 189.807 32.7745C189.217 32.9274 188.671 33.0038 188.169 33.0038C186.4 33.0038 185.112 32.5561 184.304 31.6608C183.518 30.7654 183.125 29.5643 183.125 28.0575V18.7546H180.766V17.3133C181.399 17.0949 181.934 16.811 182.371 16.4616C182.808 16.1122 183.168 15.73 183.452 15.3151C183.758 14.9002 183.998 14.4634 184.173 14.0048C184.369 13.5244 184.522 13.0658 184.631 12.629H186.138V16.3306H190.691Z" fill="#142032"/>
<path d="M197.951 32.709H194.97V16.3306H196.968L197.722 19.2132H197.787C198.115 18.2305 198.737 17.488 199.655 16.9857C200.572 16.4616 201.554 16.1995 202.603 16.1995C202.712 16.1995 202.876 16.2104 203.094 16.2323C203.334 16.2323 203.509 16.2432 203.618 16.265V19.2132H202.701C201.609 19.2132 200.746 19.3769 200.113 19.7045C199.48 20.0102 198.999 20.4252 198.672 20.9493C198.366 21.4734 198.17 22.0848 198.082 22.7837C197.995 23.4606 197.951 24.1704 197.951 24.9129V32.709Z" fill="#142032"/>
<path d="M205.859 24.2577C205.859 22.9038 206.077 21.7027 206.514 20.6545C206.951 19.6062 207.54 18.7327 208.283 18.0339C209.025 17.3133 209.888 16.7673 210.87 16.3961C211.853 16.0248 212.901 15.8392 214.015 15.8392C215.129 15.8392 216.177 16.0248 217.16 16.3961C218.164 16.7673 219.038 17.3133 219.78 18.0339C220.523 18.7327 221.102 19.6062 221.516 20.6545C221.953 21.7027 222.172 22.9038 222.172 24.2577V24.8146C222.172 26.1467 221.953 27.3369 221.516 28.3851C221.08 29.4333 220.49 30.3177 219.748 31.0384C219.027 31.759 218.164 32.305 217.16 32.6762C216.177 33.0475 215.129 33.2331 214.015 33.2331C212.901 33.2331 211.842 33.0475 210.838 32.6762C209.855 32.305 208.992 31.759 208.25 31.0384C207.529 30.3177 206.951 29.4333 206.514 28.3851C206.077 27.3369 205.859 26.1467 205.859 24.8146V24.2577ZM208.872 24.5198C208.872 25.3715 208.971 26.1795 209.167 26.9438C209.385 27.6863 209.702 28.3414 210.117 28.9092C210.554 29.4551 211.089 29.8919 211.722 30.2195C212.377 30.5252 213.142 30.6781 214.015 30.6781C214.889 30.6781 215.642 30.5252 216.275 30.2195C216.93 29.8919 217.466 29.4551 217.88 28.9092C218.317 28.3414 218.634 27.6863 218.83 26.9438C219.049 26.1795 219.158 25.3715 219.158 24.5198C219.158 23.6463 219.049 22.8383 218.83 22.0958C218.634 21.3533 218.317 20.7091 217.88 20.1631C217.466 19.5953 216.93 19.1586 216.275 18.8528C215.642 18.5253 214.889 18.3615 214.015 18.3615C213.142 18.3615 212.377 18.5253 211.722 18.8528C211.089 19.1586 210.554 19.5953 210.117 20.1631C209.702 20.7091 209.385 21.3533 209.167 22.0958C208.971 22.8383 208.872 23.6463 208.872 24.5198Z" fill="#142032"/>
<path d="M91.568 15.0663H86.4138V32.7311C86.4135 32.8921 86.3494 33.0463 86.2356 33.1601C86.1217 33.274 85.9675 33.338 85.8065 33.3384H81.8316C81.6707 33.338 81.5164 33.274 81.4026 33.1601C81.2888 33.0463 81.2247 32.8921 81.2243 32.7311V15.0663H76.0399C75.9619 15.0695 75.884 15.057 75.8108 15.0296C75.7377 15.0021 75.6708 14.9602 75.6142 14.9064C75.5575 14.8525 75.5123 14.7879 75.4811 14.7163C75.4499 14.6446 75.4335 14.5674 75.4327 14.4893V11.3648C75.4335 11.2867 75.4499 11.2095 75.4811 11.1379C75.5123 11.0662 75.5575 11.0016 75.6142 10.9477C75.6708 10.8939 75.7377 10.852 75.8108 10.8246C75.884 10.7971 75.9619 10.7846 76.0399 10.7878H91.5667C91.7276 10.7802 91.885 10.8367 92.0045 10.9448C92.1239 11.0529 92.1957 11.2039 92.2042 11.3648V14.4906C92.1954 14.651 92.1236 14.8015 92.0045 14.9093C91.8854 15.0171 91.7285 15.0735 91.568 15.0663Z" fill="#003087"/>
<path d="M108.114 33.1108C107.052 33.262 105.265 33.5052 101.988 33.5052C98.0739 33.5052 94.6156 32.5036 94.6156 26.9815V16.9025C94.6156 11.3804 98.1054 10.4091 102.019 10.4091C105.294 10.4091 107.052 10.6522 108.114 10.8034C108.539 10.8639 108.721 11.0163 108.721 11.4107V14.2366C108.721 14.3975 108.657 14.5518 108.543 14.6656C108.429 14.7794 108.275 14.8435 108.114 14.8438H101.716C100.29 14.8438 99.7748 15.3289 99.7748 16.9075V19.6692H107.872C108.033 19.6695 108.187 19.7336 108.301 19.8474C108.415 19.9612 108.479 20.1155 108.479 20.2764V23.159C108.479 23.32 108.415 23.4743 108.301 23.5881C108.187 23.7019 108.033 23.766 107.872 23.7663H99.7748V26.9828C99.7748 28.5602 100.29 29.0465 101.716 29.0465H108.114C108.275 29.0468 108.429 29.1109 108.543 29.2247C108.657 29.3385 108.721 29.4928 108.721 29.6537V32.4759C108.721 32.8677 108.539 33.0504 108.114 33.1108Z" fill="#003087"/>
<path d="M131.007 33.3344H126.183C125.789 33.3344 125.606 33.2084 125.394 32.8796L121.212 26.2387L117.422 32.7334C117.209 33.0975 116.997 33.3407 116.666 33.3407H112.176C111.872 33.3407 111.721 33.158 111.721 32.9463C111.727 32.8721 111.747 32.7997 111.781 32.7334L118.354 21.7724L111.713 11.3646C111.68 11.309 111.659 11.2466 111.653 11.1819C111.664 11.0704 111.717 10.9674 111.802 10.894C111.886 10.8206 111.996 10.7825 112.108 10.7876H116.992C117.326 10.7876 117.569 11.0912 117.748 11.3646L121.63 17.4939L125.387 11.3646C125.538 11.0912 125.812 10.7876 126.143 10.7876H130.633C130.745 10.7825 130.855 10.8206 130.939 10.894C131.024 10.9674 131.077 11.0704 131.088 11.1819C131.082 11.2466 131.061 11.309 131.027 11.3646L124.419 21.8367L131.311 32.7334C131.365 32.826 131.396 32.9301 131.402 33.037C131.403 33.2134 131.25 33.3344 131.007 33.3344Z" fill="#003087"/>
<path d="M68.1606 10.6649C68.0523 10.6652 67.9474 10.703 67.8638 10.7719C67.7802 10.8408 67.723 10.9366 67.702 11.0429L63.2975 27.3445C63.237 27.6783 63.1463 27.7993 62.8729 27.7993C62.5995 27.7993 62.5088 27.6733 62.4483 27.3445L58.0388 11.0391C58.0178 10.9328 57.9606 10.837 57.877 10.7681C57.7934 10.6992 57.6885 10.6614 57.5802 10.6611H53.2449C53.1744 10.6612 53.1048 10.6772 53.0414 10.7079C52.9779 10.7386 52.9222 10.7832 52.8783 10.8384C52.8345 10.8936 52.8037 10.958 52.7882 11.0268C52.7727 11.0956 52.7729 11.167 52.7888 11.2356C52.7888 11.2356 58.1685 29.931 58.2277 30.1149C58.9459 32.3424 60.6883 33.407 62.9057 33.407C65.0172 33.407 66.8604 32.292 67.5811 30.1212C67.6668 29.8693 72.9268 11.2344 72.9268 11.2344C72.9425 11.1658 72.9425 11.0945 72.9269 11.0259C72.9113 10.9573 72.8805 10.8931 72.8367 10.838C72.7928 10.7829 72.7372 10.7385 72.6738 10.7078C72.6105 10.6772 72.541 10.6613 72.4707 10.6611L68.1606 10.6649Z" fill="#003087"/>
<g clip-path="url(#clip0_105_1385)">
<path d="M37.078 32.205L37.078 29.3536L44.2334 29.3536C44.8088 29.3536 45.2745 28.9039 45.2745 28.3497C45.2745 27.7955 44.8088 27.3457 44.2334 27.3457L37.078 27.3457L37.078 16.6541L44.2334 16.6541C44.8088 16.6541 45.2745 16.205 45.2745 15.6502C45.2745 15.0953 44.8088 14.6462 44.2334 14.6462L37.078 14.6462L37.078 12.0469C37.078 10.661 36.2846 10.3385 35.4027 10.3385L32.5377 10.3385C31.623 10.4091 31.938 10.4841 31.938 11.039L32.5377 10.3385L21.579 11.8926C18.2167 12.529 14.6443 14.8925 14.6443 18.5804L14.6443 20.9959L2.51546 20.9959C1.9408 20.9959 1.47442 21.4451 1.47442 21.9999C1.47442 22.5548 1.9408 23.0039 2.51546 23.0039L14.6443 23.0039L14.6443 25.4188C14.6443 29.1067 17.7214 31.6534 21.579 32.1065L32.5377 33.6607L31.4966 32.6567C31.4966 33.2109 31.9623 33.6607 32.5377 33.6607L35.5287 33.6607C36.6626 33.6606 37.078 33.2129 37.078 32.205ZM34.9617 12.4249C34.9959 12.4687 34.9959 12.5509 34.9959 12.5509L34.9959 31.6534L33.5787 31.6534L33.5787 12.3464L34.7727 12.3464C34.7727 12.3464 34.9275 12.381 34.9617 12.4249ZM21.579 30.0992C18.4025 29.6139 16.7264 27.9996 16.7264 25.4194L16.7264 18.5811C16.7264 16.0009 18.7093 14.1257 21.579 13.9012L31.4966 12.3464L31.4966 31.4709L21.579 30.0992Z" fill="#003087"/>
<path d="M29.4086 28.2469L29.4086 15.7531C29.4086 15.2597 28.9833 14.8607 28.4572 14.8607C27.9311 14.8607 27.5057 15.2597 27.5057 15.7531L27.5057 28.2469C27.5057 28.7404 27.9311 29.1394 28.4572 29.1394C28.9833 29.1394 29.4086 28.7404 29.4086 28.2469Z" fill="#142032"/>
</g>
<defs>
<clipPath id="clip0_105_1385">
<rect width="42.8359" height="44.0836" fill="white" transform="translate(45.5832 0.582031) rotate(90)"/>
</clipPath>
</defs>
</svg>
