<svg width="17" height="18" viewBox="0 0 17 18" fill="none" xmlns="http://www.w3.org/2000/svg">
<path d="M8.50008 0.666626C3.89659 0.666626 0.166748 4.39647 0.166748 8.99996C0.166748 13.6035 3.89659 17.3333 8.50008 17.3333C13.1036 17.3333 16.8334 13.6035 16.8334 8.99996C16.8334 4.39647 13.1036 0.666626 8.50008 0.666626ZM13.3388 9.94082C13.3388 10.1626 13.1573 10.344 12.9356 10.344H9.84417V13.4354C9.84417 13.6572 9.66272 13.8387 9.44094 13.8387H7.55922C7.33745 13.8387 7.156 13.6572 7.156 13.4354V10.344H4.0646C3.84282 10.344 3.66137 10.1626 3.66137 9.94082V8.0591C3.66137 7.83732 3.84282 7.65587 4.0646 7.65587H7.156V4.56448C7.156 4.3427 7.33745 4.16125 7.55922 4.16125H9.44094C9.66272 4.16125 9.84417 4.3427 9.84417 4.56448V7.65587H12.9356C13.1573 7.65587 13.3388 7.83732 13.3388 8.0591V9.94082Z" fill="white"/>
</svg>
