<svg width="86" height="86" viewBox="0 0 86 86" fill="none" xmlns="http://www.w3.org/2000/svg">
<g clip-path="url(#clip0_134_1887)">
<path d="M79.38 10.6478H6.62003C4.65982 10.6478 3.07076 12.2369 3.07076 14.1971V70.9853C3.07076 72.9455 4.65982 74.5346 6.62003 74.5346H79.38C81.3402 74.5346 82.9292 72.9455 82.9292 70.9853V14.1971C82.9292 12.2369 81.3402 10.6478 79.38 10.6478Z" stroke="#4A596B" stroke-width="5.3239" stroke-linecap="round" stroke-linejoin="round"/>
<path d="M29.6903 29.0436V36.3799" stroke="#4A596B" stroke-width="5.3239" stroke-linecap="round" stroke-linejoin="round"/>
<path d="M56.3097 29.0436V36.3799" stroke="#4A596B" stroke-width="5.3239" stroke-linecap="round" stroke-linejoin="round"/>
<path d="M21.7044 57.4376C23.8534 53.9781 26.9007 51.1664 30.5215 49.3019C34.1422 47.4375 38.201 46.5901 42.2653 46.8501C46.5085 46.7756 50.7104 47.6941 54.5355 49.5324C58.3606 51.3707 61.7029 54.0778 64.2956 57.4376" stroke="#4A596B" stroke-width="5.3239" stroke-linecap="round" stroke-linejoin="round"/>
</g>
<defs>
<clipPath id="clip0_134_1887">
<rect width="85.1824" height="85.1824" fill="white" transform="translate(0.408813)"/>
</clipPath>
</defs>
</svg>
