<svg width="24" height="24" viewBox="0 0 24 24" fill="none" xmlns="http://www.w3.org/2000/svg">
<g clip-path="url(#clip0_121_2661)">
<path d="M0.75 9.75V6C0.75 4.60761 1.30312 3.27226 2.28769 2.28769C3.27226 1.30312 4.60761 0.75 6 0.75C7.39239 0.75 8.72774 1.30312 9.71231 2.28769C10.6969 3.27226 11.25 4.60761 11.25 6V9.75" stroke="#142032" stroke-width="1.5" stroke-linecap="round" stroke-linejoin="round"/>
<path d="M21.75 9.75H8.25C7.42157 9.75 6.75 10.4216 6.75 11.25V21.75C6.75 22.5784 7.42157 23.25 8.25 23.25H21.75C22.5784 23.25 23.25 22.5784 23.25 21.75V11.25C23.25 10.4216 22.5784 9.75 21.75 9.75Z" stroke="#142032" stroke-width="1.5" stroke-linecap="round" stroke-linejoin="round"/>
<path d="M15 15V18" stroke="#142032" stroke-width="1.5" stroke-linecap="round" stroke-linejoin="round"/>
</g>
<defs>
<clipPath id="clip0_121_2661">
<rect width="24" height="24" fill="white"/>
</clipPath>
</defs>
</svg>
