<svg width="24" height="24" viewBox="0 0 24 24" fill="none" xmlns="http://www.w3.org/2000/svg">
<path d="M2.97005 2.771L13.908 5.88C14.6492 6.12343 15.2965 6.59082 15.7608 7.21771C16.225 7.8446 16.4833 8.6001 16.5 9.38V19.89C16.5312 20.2218 16.4811 20.5562 16.3541 20.8643C16.227 21.1724 16.0268 21.445 15.7708 21.6583C15.5148 21.8717 15.2107 22.0195 14.8847 22.089C14.5588 22.1584 14.2208 22.1475 13.9 22.057L4.85205 19.597C4.11079 19.3664 3.46086 18.9084 2.99425 18.288C2.52763 17.6676 2.26798 16.9161 2.25205 16.14V4.688C2.23562 3.96162 2.50712 3.25822 3.00731 2.73124C3.5075 2.20426 4.1958 1.89646 4.92205 1.875H18.75C19.5457 1.875 20.3088 2.19107 20.8714 2.75368C21.434 3.31629 21.75 4.07935 21.75 4.875V13.828C21.7465 14.2325 21.6632 14.6322 21.5049 15.0044C21.3466 15.3766 21.1164 15.7139 20.8275 15.997C20.5385 16.28 20.1966 16.5033 19.8212 16.654C19.4459 16.8046 19.0445 16.8798 18.64 16.875H16.5" stroke="#000711" stroke-width="1.5" stroke-linecap="round" stroke-linejoin="round"/>
<path d="M12.375 13.875C12.1679 13.875 12 13.7071 12 13.5C12 13.2929 12.1679 13.125 12.375 13.125" stroke="#000711" stroke-width="1.5"/>
<path d="M12.375 13.875C12.5821 13.875 12.75 13.7071 12.75 13.5C12.75 13.2929 12.5821 13.125 12.375 13.125" stroke="#000711" stroke-width="1.5"/>
<path d="M21.75 9.375H16.5" stroke="#000711" stroke-width="1.5" stroke-linecap="round" stroke-linejoin="round"/>
</svg>
